<?xml version="1.0" encoding="UTF-8" ?>
<svg version="1.1" width="16" height="16" xmlns="http://www.w3.org/2000/svg" shape-rendering="crispEdges">
<rect x="5" y="5" width="1" height="1" fill="#0E0C0C" />
<rect x="14" y="5" width="1" height="1" fill="#0E0C0C" />
<rect x="15" y="5" width="1" height="1" fill="#0E0C0C" />
<rect x="4" y="6" width="1" height="1" fill="#0E0C0C" />
<rect x="5" y="6" width="1" height="1" fill="#A69E9A" />
<rect x="6" y="6" width="1" height="1" fill="#0E0C0C" />
<rect x="13" y="6" width="1" height="1" fill="#0E0C0C" />
<rect x="14" y="6" width="1" height="1" fill="#595757" />
<rect x="15" y="6" width="1" height="1" fill="#0E0C0C" />
<rect x="3" y="7" width="1" height="1" fill="#0E0C0C" />
<rect x="4" y="7" width="1" height="1" fill="#A69E9A" />
<rect x="5" y="7" width="1" height="1" fill="#0E0C0C" />
<rect x="6" y="7" width="1" height="1" fill="#807B7A" />
<rect x="7" y="7" width="1" height="1" fill="#0E0C0C" />
<rect x="11" y="7" width="1" height="1" fill="#0E0C0C" />
<rect x="12" y="7" width="1" height="1" fill="#0E0C0C" />
<rect x="13" y="7" width="1" height="1" fill="#595757" />
<rect x="14" y="7" width="1" height="1" fill="#0E0C0C" />
<rect x="15" y="7" width="1" height="1" fill="#0E0C0C" />
<rect x="2" y="8" width="1" height="1" fill="#0E0C0C" />
<rect x="3" y="8" width="1" height="1" fill="#A69E9A" />
<rect x="4" y="8" width="1" height="1" fill="#0E0C0C" />
<rect x="6" y="8" width="1" height="1" fill="#0E0C0C" />
<rect x="7" y="8" width="1" height="1" fill="#807B7A" />
<rect x="8" y="8" width="1" height="1" fill="#0E0C0C" />
<rect x="9" y="8" width="1" height="1" fill="#0E0C0C" />
<rect x="10" y="8" width="1" height="1" fill="#0E0C0C" />
<rect x="11" y="8" width="1" height="1" fill="#807B7A" />
<rect x="12" y="8" width="1" height="1" fill="#595757" />
<rect x="13" y="8" width="1" height="1" fill="#0E0C0C" />
<rect x="1" y="9" width="1" height="1" fill="#0E0C0C" />
<rect x="2" y="9" width="1" height="1" fill="#A69E9A" />
<rect x="3" y="9" width="1" height="1" fill="#0E0C0C" />
<rect x="7" y="9" width="1" height="1" fill="#0E0C0C" />
<rect x="8" y="9" width="1" height="1" fill="#807B7A" />
<rect x="9" y="9" width="1" height="1" fill="#807B7A" />
<rect x="10" y="9" width="1" height="1" fill="#807B7A" />
<rect x="11" y="9" width="1" height="1" fill="#0E0C0C" />
<rect x="12" y="9" width="1" height="1" fill="#0E0C0C" />
<rect x="0" y="10" width="1" height="1" fill="#0E0C0C" />
<rect x="1" y="10" width="1" height="1" fill="#A69E9A" />
<rect x="2" y="10" width="1" height="1" fill="#0E0C0C" />
<rect x="8" y="10" width="1" height="1" fill="#0E0C0C" />
<rect x="9" y="10" width="1" height="1" fill="#0E0C0C" />
<rect x="10" y="10" width="1" height="1" fill="#0E0C0C" />
<rect x="0" y="11" width="1" height="1" fill="#0E0C0C" />
<rect x="1" y="11" width="1" height="1" fill="#A69E9A" />
<rect x="2" y="11" width="1" height="1" fill="#0E0C0C" />
<rect x="0" y="12" width="1" height="1" fill="#0E0C0C" />
<rect x="1" y="12" width="1" height="1" fill="#0E0C0C" />
</svg>