<?xml version="1.0" encoding="UTF-8" ?>
<svg version="1.1" width="16" height="16" xmlns="http://www.w3.org/2000/svg" shape-rendering="crispEdges">
<rect x="6" y="6" width="1" height="1" fill="#0E0C0C" />
<rect x="7" y="6" width="1" height="1" fill="#0E0C0C" />
<rect x="8" y="6" width="1" height="1" fill="#0E0C0C" />
<rect x="9" y="6" width="1" height="1" fill="#0E0C0C" />
<rect x="6" y="7" width="1" height="1" fill="#0E0C0C" />
<rect x="7" y="7" width="1" height="1" fill="#FFFFFF" />
<rect x="8" y="7" width="1" height="1" fill="#ECEBE7" />
<rect x="9" y="7" width="1" height="1" fill="#0E0C0C" />
<rect x="6" y="8" width="1" height="1" fill="#0E0C0C" />
<rect x="7" y="8" width="1" height="1" fill="#ECEBE7" />
<rect x="8" y="8" width="1" height="1" fill="#CBC6C1" />
<rect x="9" y="8" width="1" height="1" fill="#0E0C0C" />
<rect x="6" y="9" width="1" height="1" fill="#0E0C0C" />
<rect x="7" y="9" width="1" height="1" fill="#0E0C0C" />
<rect x="8" y="9" width="1" height="1" fill="#0E0C0C" />
<rect x="9" y="9" width="1" height="1" fill="#0E0C0C" />
</svg>