<?xml version="1.0" encoding="UTF-8" ?>
<svg version="1.1" width="16" height="16" xmlns="http://www.w3.org/2000/svg" shape-rendering="crispEdges">
<rect x="10" y="0" width="1" height="1" fill="#0E0C0C" />
<rect x="2" y="1" width="1" height="1" fill="#0E0C0C" />
<rect x="3" y="1" width="1" height="1" fill="#0E0C0C" />
<rect x="4" y="1" width="1" height="1" fill="#0E0C0C" />
<rect x="5" y="1" width="1" height="1" fill="#0E0C0C" />
<rect x="9" y="1" width="1" height="1" fill="#0E0C0C" />
<rect x="10" y="1" width="1" height="1" fill="#2789CD" />
<rect x="11" y="1" width="1" height="1" fill="#0E0C0C" />
<rect x="1" y="2" width="1" height="1" fill="#0E0C0C" />
<rect x="2" y="2" width="1" height="1" fill="#807B7A" />
<rect x="3" y="2" width="1" height="1" fill="#807B7A" />
<rect x="4" y="2" width="1" height="1" fill="#595757" />
<rect x="5" y="2" width="1" height="1" fill="#323232" />
<rect x="6" y="2" width="1" height="1" fill="#0E0C0C" />
<rect x="8" y="2" width="1" height="1" fill="#0E0C0C" />
<rect x="9" y="2" width="1" height="1" fill="#2789CD" />
<rect x="10" y="2" width="1" height="1" fill="#C9D4FD" />
<rect x="11" y="2" width="1" height="1" fill="#2B4E95" />
<rect x="12" y="2" width="1" height="1" fill="#0E0C0C" />
<rect x="1" y="3" width="1" height="1" fill="#0E0C0C" />
<rect x="2" y="3" width="1" height="1" fill="#807B7A" />
<rect x="3" y="3" width="1" height="1" fill="#595757" />
<rect x="4" y="3" width="1" height="1" fill="#595757" />
<rect x="5" y="3" width="1" height="1" fill="#323232" />
<rect x="6" y="3" width="1" height="1" fill="#0E0C0C" />
<rect x="7" y="3" width="1" height="1" fill="#0E0C0C" />
<rect x="8" y="3" width="1" height="1" fill="#2789CD" />
<rect x="9" y="3" width="1" height="1" fill="#C9D4FD" />
<rect x="10" y="3" width="1" height="1" fill="#2B4E95" />
<rect x="11" y="3" width="1" height="1" fill="#8AA1F6" />
<rect x="12" y="3" width="1" height="1" fill="#2B4E95" />
<rect x="13" y="3" width="1" height="1" fill="#0E0C0C" />
<rect x="1" y="4" width="1" height="1" fill="#0E0C0C" />
<rect x="2" y="4" width="1" height="1" fill="#807B7A" />
<rect x="3" y="4" width="1" height="1" fill="#595757" />
<rect x="4" y="4" width="1" height="1" fill="#595757" />
<rect x="5" y="4" width="1" height="1" fill="#595757" />
<rect x="6" y="4" width="1" height="1" fill="#323232" />
<rect x="7" y="4" width="1" height="1" fill="#323232" />
<rect x="8" y="4" width="1" height="1" fill="#0E0C0C" />
<rect x="9" y="4" width="1" height="1" fill="#2B4E95" />
<rect x="10" y="4" width="1" height="1" fill="#8AA1F6" />
<rect x="11" y="4" width="1" height="1" fill="#2B4E95" />
<rect x="12" y="4" width="1" height="1" fill="#8AA1F6" />
<rect x="13" y="4" width="1" height="1" fill="#2B4E95" />
<rect x="14" y="4" width="1" height="1" fill="#0E0C0C" />
<rect x="1" y="5" width="1" height="1" fill="#0E0C0C" />
<rect x="2" y="5" width="1" height="1" fill="#807B7A" />
<rect x="3" y="5" width="1" height="1" fill="#595757" />
<rect x="4" y="5" width="1" height="1" fill="#595757" />
<rect x="5" y="5" width="1" height="1" fill="#595757" />
<rect x="6" y="5" width="1" height="1" fill="#323232" />
<rect x="7" y="5" width="1" height="1" fill="#A69E9A" />
<rect x="8" y="5" width="1" height="1" fill="#A69E9A" />
<rect x="9" y="5" width="1" height="1" fill="#0E0C0C" />
<rect x="10" y="5" width="1" height="1" fill="#2B4E95" />
<rect x="11" y="5" width="1" height="1" fill="#8AA1F6" />
<rect x="12" y="5" width="1" height="1" fill="#2B4E95" />
<rect x="13" y="5" width="1" height="1" fill="#4572E3" />
<rect x="14" y="5" width="1" height="1" fill="#1B2447" />
<rect x="15" y="5" width="1" height="1" fill="#0E0C0C" />
<rect x="2" y="6" width="1" height="1" fill="#0E0C0C" />
<rect x="3" y="6" width="1" height="1" fill="#0E0C0C" />
<rect x="4" y="6" width="1" height="1" fill="#595757" />
<rect x="5" y="6" width="1" height="1" fill="#323232" />
<rect x="6" y="6" width="1" height="1" fill="#A69E9A" />
<rect x="7" y="6" width="1" height="1" fill="#807B7A" />
<rect x="8" y="6" width="1" height="1" fill="#807B7A" />
<rect x="9" y="6" width="1" height="1" fill="#807B7A" />
<rect x="10" y="6" width="1" height="1" fill="#0E0C0C" />
<rect x="11" y="6" width="1" height="1" fill="#2B4E95" />
<rect x="12" y="6" width="1" height="1" fill="#4572E3" />
<rect x="13" y="6" width="1" height="1" fill="#1B2447" />
<rect x="14" y="6" width="1" height="1" fill="#0E0C0C" />
<rect x="3" y="7" width="1" height="1" fill="#0E0C0C" />
<rect x="4" y="7" width="1" height="1" fill="#323232" />
<rect x="5" y="7" width="1" height="1" fill="#A69E9A" />
<rect x="6" y="7" width="1" height="1" fill="#807B7A" />
<rect x="7" y="7" width="1" height="1" fill="#807B7A" />
<rect x="8" y="7" width="1" height="1" fill="#807B7A" />
<rect x="9" y="7" width="1" height="1" fill="#F8C53A" />
<rect x="10" y="7" width="1" height="1" fill="#F8C53A" />
<rect x="11" y="7" width="1" height="1" fill="#0E0C0C" />
<rect x="12" y="7" width="1" height="1" fill="#2B4E95" />
<rect x="13" y="7" width="1" height="1" fill="#0E0C0C" />
<rect x="2" y="8" width="1" height="1" fill="#0E0C0C" />
<rect x="3" y="8" width="1" height="1" fill="#2789CD" />
<rect x="4" y="8" width="1" height="1" fill="#0E0C0C" />
<rect x="5" y="8" width="1" height="1" fill="#A69E9A" />
<rect x="6" y="8" width="1" height="1" fill="#807B7A" />
<rect x="7" y="8" width="1" height="1" fill="#807B7A" />
<rect x="8" y="8" width="1" height="1" fill="#F8C53A" />
<rect x="9" y="8" width="1" height="1" fill="#F8C53A" />
<rect x="10" y="8" width="1" height="1" fill="#807B7A" />
<rect x="11" y="8" width="1" height="1" fill="#595757" />
<rect x="12" y="8" width="1" height="1" fill="#0E0C0C" />
<rect x="1" y="9" width="1" height="1" fill="#0E0C0C" />
<rect x="2" y="9" width="1" height="1" fill="#2789CD" />
<rect x="3" y="9" width="1" height="1" fill="#C9D4FD" />
<rect x="4" y="9" width="1" height="1" fill="#2B4E95" />
<rect x="5" y="9" width="1" height="1" fill="#0E0C0C" />
<rect x="6" y="9" width="1" height="1" fill="#807B7A" />
<rect x="7" y="9" width="1" height="1" fill="#F8C53A" />
<rect x="8" y="9" width="1" height="1" fill="#F8C53A" />
<rect x="9" y="9" width="1" height="1" fill="#807B7A" />
<rect x="10" y="9" width="1" height="1" fill="#807B7A" />
<rect x="11" y="9" width="1" height="1" fill="#807B7A" />
<rect x="12" y="9" width="1" height="1" fill="#595757" />
<rect x="13" y="9" width="1" height="1" fill="#0E0C0C" />
<rect x="0" y="10" width="1" height="1" fill="#0E0C0C" />
<rect x="1" y="10" width="1" height="1" fill="#2789CD" />
<rect x="2" y="10" width="1" height="1" fill="#C9D4FD" />
<rect x="3" y="10" width="1" height="1" fill="#2B4E95" />
<rect x="4" y="10" width="1" height="1" fill="#8AA1F6" />
<rect x="5" y="10" width="1" height="1" fill="#2B4E95" />
<rect x="6" y="10" width="1" height="1" fill="#0E0C0C" />
<rect x="7" y="10" width="1" height="1" fill="#F8C53A" />
<rect x="8" y="10" width="1" height="1" fill="#807B7A" />
<rect x="9" y="10" width="1" height="1" fill="#807B7A" />
<rect x="10" y="10" width="1" height="1" fill="#595757" />
<rect x="11" y="10" width="1" height="1" fill="#595757" />
<rect x="12" y="10" width="1" height="1" fill="#595757" />
<rect x="13" y="10" width="1" height="1" fill="#0E0C0C" />
<rect x="14" y="10" width="1" height="1" fill="#0E0C0C" />
<rect x="1" y="11" width="1" height="1" fill="#0E0C0C" />
<rect x="2" y="11" width="1" height="1" fill="#2B4E95" />
<rect x="3" y="11" width="1" height="1" fill="#8AA1F6" />
<rect x="4" y="11" width="1" height="1" fill="#2B4E95" />
<rect x="5" y="11" width="1" height="1" fill="#8AA1F6" />
<rect x="6" y="11" width="1" height="1" fill="#2B4E95" />
<rect x="7" y="11" width="1" height="1" fill="#0E0C0C" />
<rect x="8" y="11" width="1" height="1" fill="#807B7A" />
<rect x="9" y="11" width="1" height="1" fill="#807B7A" />
<rect x="10" y="11" width="1" height="1" fill="#595757" />
<rect x="11" y="11" width="1" height="1" fill="#A69E9A" />
<rect x="12" y="11" width="1" height="1" fill="#807B7A" />
<rect x="13" y="11" width="1" height="1" fill="#807B7A" />
<rect x="14" y="11" width="1" height="1" fill="#595757" />
<rect x="15" y="11" width="1" height="1" fill="#0E0C0C" />
<rect x="2" y="12" width="1" height="1" fill="#0E0C0C" />
<rect x="3" y="12" width="1" height="1" fill="#2B4E95" />
<rect x="4" y="12" width="1" height="1" fill="#8AA1F6" />
<rect x="5" y="12" width="1" height="1" fill="#2B4E95" />
<rect x="6" y="12" width="1" height="1" fill="#4572E3" />
<rect x="7" y="12" width="1" height="1" fill="#1B2447" />
<rect x="8" y="12" width="1" height="1" fill="#0E0C0C" />
<rect x="9" y="12" width="1" height="1" fill="#807B7A" />
<rect x="10" y="12" width="1" height="1" fill="#595757" />
<rect x="11" y="12" width="1" height="1" fill="#A69E9A" />
<rect x="12" y="12" width="1" height="1" fill="#807B7A" />
<rect x="13" y="12" width="1" height="1" fill="#807B7A" />
<rect x="14" y="12" width="1" height="1" fill="#0E0C0C" />
<rect x="3" y="13" width="1" height="1" fill="#0E0C0C" />
<rect x="4" y="13" width="1" height="1" fill="#2B4E95" />
<rect x="5" y="13" width="1" height="1" fill="#4572E3" />
<rect x="6" y="13" width="1" height="1" fill="#1B2447" />
<rect x="7" y="13" width="1" height="1" fill="#0E0C0C" />
<rect x="9" y="13" width="1" height="1" fill="#0E0C0C" />
<rect x="10" y="13" width="1" height="1" fill="#0E0C0C" />
<rect x="11" y="13" width="1" height="1" fill="#807B7A" />
<rect x="12" y="13" width="1" height="1" fill="#807B7A" />
<rect x="13" y="13" width="1" height="1" fill="#595757" />
<rect x="14" y="13" width="1" height="1" fill="#0E0C0C" />
<rect x="4" y="14" width="1" height="1" fill="#0E0C0C" />
<rect x="5" y="14" width="1" height="1" fill="#2B4E95" />
<rect x="6" y="14" width="1" height="1" fill="#0E0C0C" />
<rect x="10" y="14" width="1" height="1" fill="#0E0C0C" />
<rect x="11" y="14" width="1" height="1" fill="#595757" />
<rect x="12" y="14" width="1" height="1" fill="#0E0C0C" />
<rect x="13" y="14" width="1" height="1" fill="#0E0C0C" />
<rect x="14" y="14" width="1" height="1" fill="#CBC6C1" />
<rect x="15" y="14" width="1" height="1" fill="#0E0C0C" />
<rect x="5" y="15" width="1" height="1" fill="#0E0C0C" />
<rect x="11" y="15" width="1" height="1" fill="#0E0C0C" />
<rect x="14" y="15" width="1" height="1" fill="#0E0C0C" />
</svg>